{
    "accessors" : [
        {
            "bufferView" : 0,
            "componentType" : 5123,
            "count" : 114,
            "max" : [
                38
            ],
            "min" : [
                0
            ],
            "type" : "SCALAR"
        },
        {
            "bufferView" : 1,
            "componentType" : 5126,
            "count" : 39,
            "max" : [
                3.5254602432250977,
                3.5575413703918457,
                1.9111609471096462e-14
            ],
            "min" : [
                -3.5254602432250977,
                -3.5461275577545166,
                -1.8592277939433188e-08
            ],
            "type" : "VEC3"
        },
        {
            "bufferView" : 2,
            "componentType" : 5126,
            "count" : 39,
            "max" : [
                0.0,
                0.0,
                -0.999969482421875
            ],
            "min" : [
                0.0,
                0.0,
                -1.0
            ],
            "type" : "VEC3"
        },
        {
            "bufferView" : 3,
            "componentType" : 5126,
            "count" : 39,
            "max" : [
                1.0,
                0.014714287593960762,
                9.023893286254359e-13,
                1.0
            ],
            "min" : [
                0.9990009665489197,
                -0.04468926042318344,
                -1.462649554424822e-12,
                1.0
            ],
            "type" : "VEC4"
        },
        {
            "bufferView" : 4,
            "componentType" : 5126,
            "count" : 39,
            "max" : [
                0.7244606018066406,
                0.9848718643188477
            ],
            "min" : [
                0.2755391001701355,
                0.015128374099731445
            ],
            "type" : "VEC2"
        },
        {
            "bufferView" : 5,
            "componentType" : 5123,
            "count" : 69888,
            "max" : [
                13615
            ],
            "min" : [
                0
            ],
            "type" : "SCALAR"
        },
        {
            "bufferView" : 6,
            "componentType" : 5126,
            "count" : 13616,
            "max" : [
                14.016298294067383,
                29.05080223083496,
                -1.0212373733520508
            ],
            "min" : [
                -14.016298294067383,
                -29.05080223083496,
                -1.661935806274414
            ],
            "type" : "VEC3"
        },
        {
            "bufferView" : 7,
            "componentType" : 5126,
            "count" : 13616,
            "max" : [
                1.0,
                1.0,
                3.0518509447574615e-05
            ],
            "min" : [
                -1.0,
                -1.0,
                -1.0
            ],
            "type" : "VEC3"
        },
        {
            "bufferView" : 8,
            "componentType" : 5126,
            "count" : 13616,
            "max" : [
                1.0,
                1.0,
                1.0,
                1.0
            ],
            "min" : [
                -1.0,
                -1.0,
                -0.9999991059303284,
                -1.0
            ],
            "type" : "VEC4"
        },
        {
            "bufferView" : 9,
            "componentType" : 5126,
            "count" : 13616,
            "max" : [
                1.0004674196243286,
                1.0002080975827994
            ],
            "min" : [
                -0.0001672816142672673,
                -0.2436763048171997
            ],
            "type" : "VEC2"
        },
        {
            "bufferView" : 10,
            "componentType" : 5123,
            "count" : 272658,
            "max" : [
                52104
            ],
            "min" : [
                0
            ],
            "type" : "SCALAR"
        },
        {
            "bufferView" : 11,
            "componentType" : 5126,
            "count" : 52105,
            "max" : [
                25.900588989257812,
                14.506632804870605,
                50.28372573852539
            ],
            "min" : [
                -25.900480270385742,
                -14.506632804870605,
                -50.28373718261719
            ],
            "type" : "VEC3"
        },
        {
            "bufferView" : 12,
            "componentType" : 5126,
            "count" : 52105,
            "max" : [
                0.999969482421875,
                0.999969482421875,
                0.99993896484375
            ],
            "min" : [
                -0.999908447265625,
                -0.999969482421875,
                -0.999755859375
            ],
            "type" : "VEC3"
        },
        {
            "bufferView" : 13,
            "componentType" : 5126,
            "count" : 52105,
            "max" : [
                1.0283793210983276,
                1.0318034887313843
            ],
            "min" : [
                -0.06020895764231682,
                -0.005668282508850098
            ],
            "type" : "VEC2"
        },
        {
            "bufferView" : 14,
            "componentType" : 5126,
            "count" : 52105,
            "max" : [
                1.0411038398742676,
                1.021872939541936
            ],
            "min" : [
                -0.12692801654338837,
                -0.005668282508850098
            ],
            "type" : "VEC2"
        }
    ],
    "asset" : {
        "generator" : "Khronos Blender glTF 2.0 exporter",
        "version" : "2.0"
    },
    "bufferViews" : [
        {
            "buffer" : 0,
            "byteLength" : 228,
            "byteOffset" : 0,
            "target" : 34963
        },
        {
            "buffer" : 0,
            "byteLength" : 468,
            "byteOffset" : 228,
            "target" : 34962
        },
        {
            "buffer" : 0,
            "byteLength" : 468,
            "byteOffset" : 696,
            "target" : 34962
        },
        {
            "buffer" : 0,
            "byteLength" : 624,
            "byteOffset" : 1164,
            "target" : 34962
        },
        {
            "buffer" : 0,
            "byteLength" : 312,
            "byteOffset" : 1788,
            "target" : 34962
        },
        {
            "buffer" : 0,
            "byteLength" : 139776,
            "byteOffset" : 2100,
            "target" : 34963
        },
        {
            "buffer" : 0,
            "byteLength" : 163392,
            "byteOffset" : 141876,
            "target" : 34962
        },
        {
            "buffer" : 0,
            "byteLength" : 163392,
            "byteOffset" : 305268,
            "target" : 34962
        },
        {
            "buffer" : 0,
            "byteLength" : 217856,
            "byteOffset" : 468660,
            "target" : 34962
        },
        {
            "buffer" : 0,
            "byteLength" : 108928,
            "byteOffset" : 686516,
            "target" : 34962
        },
        {
            "buffer" : 0,
            "byteLength" : 545316,
            "byteOffset" : 795444,
            "target" : 34963
        },
        {
            "buffer" : 0,
            "byteLength" : 625260,
            "byteOffset" : 1340760,
            "target" : 34962
        },
        {
            "buffer" : 0,
            "byteLength" : 625260,
            "byteOffset" : 1966020,
            "target" : 34962
        },
        {
            "buffer" : 0,
            "byteLength" : 416840,
            "byteOffset" : 2591280,
            "target" : 34962
        },
        {
            "buffer" : 0,
            "byteLength" : 416840,
            "byteOffset" : 3008120,
            "target" : 34962
        }
    ],
    "buffers" : [
        {
            "byteLength" : 3424960,
            "uri" : "iphone.bin"
        }
    ],
    "images" : [
        {
            "name" : "plastic_baseColor",
            "uri" : "plastic_baseColor.jpg"
        },
        {
            "name" : "plastic_occlusionRoughnessMetallic",
            "uri" : "plastic_occlusionRoughnessMetallic.jpg"
        },
        {
            "name" : "plastic_normal",
            "uri" : "plastic_normal.jpg"
        },
        {
            "name" : "aluminium_baseColor",
            "uri" : "aluminium_baseColor.jpg"
        },
        {
            "name" : "aluminium_occlusionRoughnessMetallic",
            "uri" : "aluminium_occlusionRoughnessMetallic.jpg"
        },
        {
            "name" : "aluminium_normal",
            "uri" : "aluminium_normal.jpg"
        },
        {
            "name" : "iphone_base",
            "uri" : "iphone_base.jpg"
        }
    ],
    "materials" : [
        {
            "name" : "body",
            "normalTexture" : {
                "index" : 2
            },
            "pbrMetallicRoughness" : {
                "baseColorTexture" : {
                    "index" : 0
                },
                "metallicRoughnessTexture" : {
                    "index" : 1
                }
            }
        },
        {
            "name" : "iphone_edge",
            "normalTexture" : {
                "index" : 5
            },
            "pbrMetallicRoughness" : {
                "baseColorTexture" : {
                    "index" : 3
                },
                "metallicRoughnessTexture" : {
                    "index" : 4
                }
            }
        },
        {
            "name" : "screen",
            "pbrMetallicRoughness" : {
                "baseColorTexture" : {
                    "index" : 7
                },
                "metallicRoughnessTexture" : {
                    "index" : 1
                }
            }
        }
    ],
    "meshes" : [
        {
            "name" : "Untitled.001",
            "primitives" : [
                {
                    "attributes" : {
                        "NORMAL" : 2,
                        "POSITION" : 1,
                        "TANGENT" : 3,
                        "TEXCOORD_0" : 4
                    },
                    "indices" : 0,
                    "material" : 2
                }
            ]
        },
        {
            "name" : "Untitled.003",
            "primitives" : [
                {
                    "attributes" : {
                        "NORMAL" : 7,
                        "POSITION" : 6,
                        "TANGENT" : 8,
                        "TEXCOORD_0" : 9
                    },
                    "indices" : 5,
                    "material" : 1
                }
            ]
        },
        {
            "name" : "Untitled.006",
            "primitives" : [
                {
                    "attributes" : {
                        "NORMAL" : 12,
                        "POSITION" : 11,
                        "TEXCOORD_0" : 13,
                        "TEXCOORD_1" : 14
                    },
                    "indices" : 10,
                    "material" : 0
                }
            ]
        }
    ],
    "nodes" : [
        {
            "mesh" : 2,
            "name" : "body",
            "rotation" : [
                0.7071068286895752,
                -1.024672258154169e-08,
                -1.024672080518485e-08,
                0.7071067094802856
            ],
            "scale" : [
                1.0,
                1.0,
                0.9999998807907104
            ],
            "translation" : [
                -2.6552815437316895,
                -1.0477582216262817,
                0.37583231925964355
            ]
        },
        {
            "children" : [
                0,
                2,
                3
            ],
            "name" : "Null"
        },
        {
            "mesh" : 0,
            "name" : "Screen",
            "rotation" : [
                0.9934264421463013,
                0.005422065034508705,
                0.0334453284740448,
                0.10934292525053024
            ],
            "scale" : [
                6.368759632110596,
                13.507094383239746,
                1.7287333011627197
            ],
            "translation" : [
                -2.776683807373047,
                -0.47517654299736023,
                3.0908002853393555
            ]
        },
        {
            "mesh" : 1,
            "name" : "Sub_glass_top",
            "rotation" : [
                0.9934264421463013,
                0.005422122310847044,
                0.033445339649915695,
                0.10934311151504517
            ],
            "scale" : [
                1.7294872999191284,
                1.7134522199630737,
                1.7287331819534302
            ],
            "translation" : [
                -2.593137741088867,
                -1.0501519441604614,
                0.48372316360473633
            ]
        }
    ],
    "samplers" : [
        {}
    ],
    "scene" : 0,
    "scenes" : [
        {
            "name" : "Scene",
            "nodes" : [
                1
            ]
        }
    ],
    "textures" : [
        {
            "sampler" : 0,
            "source" : 0
        },
        {
            "sampler" : 0,
            "source" : 1
        },
        {
            "sampler" : 0,
            "source" : 2
        },
        {
            "sampler" : 0,
            "source" : 3
        },
        {
            "sampler" : 0,
            "source" : 4
        },
        {
            "sampler" : 0,
            "source" : 5
        },
        {
            "sampler" : 0,
            "source" : 1
        },
        {
            "sampler" : 0,
            "source" : 6
        }
    ]
}
