{
    "accessors" : [
        {
            "bufferView" : 0,
            "componentType" : 5123,
            "count" : 27951,
            "max" : [
                6105
            ],
            "min" : [
                0
            ],
            "type" : "SCALAR"
        },
        {
            "bufferView" : 1,
            "componentType" : 5126,
            "count" : 6106,
            "max" : [
                24.233612060546875,
                49.60466766357422,
                6.102701187133789
            ],
            "min" : [
                -24.325965881347656,
                -49.85879135131836,
                -1.4800790548324585
            ],
            "type" : "VEC3"
        },
        {
            "bufferView" : 2,
            "componentType" : 5126,
            "count" : 6106,
            "max" : [
                0.999755859375,
                0.9982299208641052,
                0.999969482421875
            ],
            "min" : [
                -0.999969482421875,
                -0.999908447265625,
                -0.06744590401649475
            ],
            "type" : "VEC3"
        },
        {
            "bufferView" : 3,
            "componentType" : 5126,
            "count" : 6106,
            "max" : [
                1.0,
                0.9988011717796326,
                0.9982544183731079,
                1.0
            ],
            "min" : [
                -0.9999989867210388,
                -0.9989550709724426,
                -0.9981063008308411,
                -1.0
            ],
            "type" : "VEC4"
        },
        {
            "bufferView" : 4,
            "componentType" : 5126,
            "count" : 6106,
            "max" : [
                1.0,
                1.0857906490564346
            ],
            "min" : [
                -0.0031611386220902205,
                -0.03267228603363037
            ],
            "type" : "VEC2"
        },
        {
            "bufferView" : 5,
            "componentType" : 5123,
            "count" : 181770,
            "max" : [
                36379
            ],
            "min" : [
                0
            ],
            "type" : "SCALAR"
        },
        {
            "bufferView" : 6,
            "componentType" : 5126,
            "count" : 36380,
            "max" : [
                26.008604049682617,
                51.07555389404297,
                5.7920451164245605
            ],
            "min" : [
                -25.860891342163086,
                -51.138526916503906,
                -5.831964492797852
            ],
            "type" : "VEC3"
        },
        {
            "bufferView" : 7,
            "componentType" : 5126,
            "count" : 36380,
            "max" : [
                0.999969482421875,
                0.999969482421875,
                0.999969482421875
            ],
            "min" : [
                -0.99993896484375,
                -0.999969482421875,
                -0.999847412109375
            ],
            "type" : "VEC3"
        },
        {
            "bufferView" : 8,
            "componentType" : 5126,
            "count" : 36380,
            "max" : [
                1.0936510562896729,
                1.0318087860941887
            ],
            "min" : [
                -0.0007025037775747478,
                -0.017453551292419434
            ],
            "type" : "VEC2"
        },
        {
            "bufferView" : 9,
            "componentType" : 5126,
            "count" : 36380,
            "max" : [
                1.043660044670105,
                1.0026517403312027
            ],
            "min" : [
                -0.0007025037775747478,
                -0.017453551292419434
            ],
            "type" : "VEC2"
        },
        {
            "bufferView" : 10,
            "componentType" : 5123,
            "count" : 114,
            "max" : [
                38
            ],
            "min" : [
                0
            ],
            "type" : "SCALAR"
        },
        {
            "bufferView" : 11,
            "componentType" : 5126,
            "count" : 39,
            "max" : [
                22.48781967163086,
                47.852779388427734,
                3.2567646503448486
            ],
            "min" : [
                -22.48781967163086,
                -48.00667190551758,
                -3.2659809589385986
            ],
            "type" : "VEC3"
        },
        {
            "bufferView" : 12,
            "componentType" : 5126,
            "count" : 39,
            "max" : [
                -0.021729178726673126,
                -0.05972472205758095,
                0.9979552626609802
            ],
            "min" : [
                -0.021759696304798126,
                -0.05972472205758095,
                0.9979552626609802
            ],
            "type" : "VEC3"
        },
        {
            "bufferView" : 13,
            "componentType" : 5126,
            "count" : 39,
            "max" : [
                0.9997637867927551,
                0.09181147813796997,
                0.02716831862926483,
                1.0
            ],
            "min" : [
                0.9954056739807129,
                -0.03275479003787041,
                0.019797468557953835,
                1.0
            ],
            "type" : "VEC4"
        },
        {
            "bufferView" : 14,
            "componentType" : 5126,
            "count" : 39,
            "max" : [
                0.7244606018066406,
                0.9848718643188477
            ],
            "min" : [
                0.2755391001701355,
                0.015128374099731445
            ],
            "type" : "VEC2"
        }
    ],
    "asset" : {
        "generator" : "Khronos Blender glTF 2.0 exporter",
        "version" : "2.0"
    },
    "bufferViews" : [
        {
            "buffer" : 0,
            "byteLength" : 55902,
            "byteOffset" : 0,
            "target" : 34963
        },
        {
            "buffer" : 0,
            "byteLength" : 73272,
            "byteOffset" : 55904,
            "target" : 34962
        },
        {
            "buffer" : 0,
            "byteLength" : 73272,
            "byteOffset" : 129176,
            "target" : 34962
        },
        {
            "buffer" : 0,
            "byteLength" : 97696,
            "byteOffset" : 202448,
            "target" : 34962
        },
        {
            "buffer" : 0,
            "byteLength" : 48848,
            "byteOffset" : 300144,
            "target" : 34962
        },
        {
            "buffer" : 0,
            "byteLength" : 363540,
            "byteOffset" : 348992,
            "target" : 34963
        },
        {
            "buffer" : 0,
            "byteLength" : 436560,
            "byteOffset" : 712532,
            "target" : 34962
        },
        {
            "buffer" : 0,
            "byteLength" : 436560,
            "byteOffset" : 1149092,
            "target" : 34962
        },
        {
            "buffer" : 0,
            "byteLength" : 291040,
            "byteOffset" : 1585652,
            "target" : 34962
        },
        {
            "buffer" : 0,
            "byteLength" : 291040,
            "byteOffset" : 1876692,
            "target" : 34962
        },
        {
            "buffer" : 0,
            "byteLength" : 228,
            "byteOffset" : 2167732,
            "target" : 34963
        },
        {
            "buffer" : 0,
            "byteLength" : 468,
            "byteOffset" : 2167960,
            "target" : 34962
        },
        {
            "buffer" : 0,
            "byteLength" : 468,
            "byteOffset" : 2168428,
            "target" : 34962
        },
        {
            "buffer" : 0,
            "byteLength" : 624,
            "byteOffset" : 2168896,
            "target" : 34962
        },
        {
            "buffer" : 0,
            "byteLength" : 312,
            "byteOffset" : 2169520,
            "target" : 34962
        }
    ],
    "buffers" : [
        {
            "byteLength" : 2169832,
            "uri" : "iphone.bin"
        }
    ],
    "images" : [
        {
            "name" : "iron_baseColor",
            "uri" : "iron_baseColor.jpg"
        },
        {
            "name" : "iron_occlusionRoughnessMetallic",
            "uri" : "iron_occlusionRoughnessMetallic.jpg"
        },
        {
            "name" : "iron_normal",
            "uri" : "iron_normal.jpg"
        },
        {
            "name" : "test_03",
            "uri" : "test_03.jpg"
        },
        {
            "name" : "aluminium_baseColor",
            "uri" : "aluminium_baseColor.jpg"
        },
        {
            "name" : "aluminium_normal",
            "uri" : "aluminium_normal.jpg"
        },
        {
            "name" : "aluminium_occlusionRoughnessMetallic",
            "uri" : "aluminium_occlusionRoughnessMetallic.jpg"
        }
    ],
    "materials" : [
        {
            "name" : "body",
            "normalTexture" : {
                "index" : 2
            },
            "pbrMetallicRoughness" : {
                "baseColorTexture" : {
                    "index" : 0
                },
                "metallicRoughnessTexture" : {
                    "index" : 1
                }
            }
        },
        {
            "name" : "screen",
            "pbrMetallicRoughness" : {
                "baseColorFactor" : [
                    0.9442920088768005,
                    0.9196979403495789,
                    1.0,
                    1.0
                ],
                "baseColorTexture" : {
                    "index" : 3
                }
            }
        },
        {
            "name" : "screen_edge",
            "normalTexture" : {
                "index" : 5
            },
            "pbrMetallicRoughness" : {
                "baseColorTexture" : {
                    "index" : 4
                },
                "metallicRoughnessTexture" : {
                    "index" : 6
                }
            }
        }
    ],
    "meshes" : [
        {
            "name" : "Untitled.003",
            "primitives" : [
                {
                    "attributes" : {
                        "NORMAL" : 2,
                        "POSITION" : 1,
                        "TANGENT" : 3,
                        "TEXCOORD_0" : 4
                    },
                    "indices" : 0,
                    "material" : 2
                }
            ]
        },
        {
            "name" : "Untitled.006",
            "primitives" : [
                {
                    "attributes" : {
                        "NORMAL" : 7,
                        "POSITION" : 6,
                        "TEXCOORD_0" : 8,
                        "TEXCOORD_1" : 9
                    },
                    "indices" : 5,
                    "material" : 0
                }
            ]
        },
        {
            "name" : "Untitled.001",
            "primitives" : [
                {
                    "attributes" : {
                        "NORMAL" : 12,
                        "POSITION" : 11,
                        "TANGENT" : 13,
                        "TEXCOORD_0" : 14
                    },
                    "indices" : 10,
                    "material" : 1
                }
            ]
        }
    ],
    "nodes" : [
        {
            "mesh" : 1,
            "name" : "body",
            "translation" : [
                -4.731853008270264,
                0.768227219581604,
                3.366211414337158
            ]
        },
        {
            "children" : [
                0,
                2,
                3
            ],
            "name" : "iphone",
            "translation" : [
                4.175228595733643,
                -2.643962860107422,
                -1.6855812072753906
            ]
        },
        {
            "mesh" : 2,
            "name" : "Screen",
            "translation" : [
                -4.708846092224121,
                0.5711565017700195,
                6.136459827423096
            ]
        },
        {
            "mesh" : 0,
            "name" : "screen_edge",
            "translation" : [
                -4.664422512054443,
                0.736220121383667,
                3.4658942222595215
            ]
        }
    ],
    "samplers" : [
        {}
    ],
    "scene" : 0,
    "scenes" : [
        {
            "name" : "Scene",
            "nodes" : [
                1
            ]
        }
    ],
    "textures" : [
        {
            "sampler" : 0,
            "source" : 0
        },
        {
            "sampler" : 0,
            "source" : 1
        },
        {
            "sampler" : 0,
            "source" : 2
        },
        {
            "sampler" : 0,
            "source" : 3
        },
        {
            "sampler" : 0,
            "source" : 4
        },
        {
            "sampler" : 0,
            "source" : 5
        },
        {
            "sampler" : 0,
            "source" : 6
        }
    ]
}
